PathFileType	4	(X/Y/Z)	C:\Users\Basilio\Documents\Thesis Gigler\squatting_fais\c3dfiles\040\SJ_pre2\markers_experimental.trc
DataRate	CameraRate	NumFrames	NumMarkers	Units	OrigDataRate	OrigDataStartFrame	OrigNumFrames
200.000000	200.000000	4	64	mm	200.000000	664	1328
Frame#	Time	FHD			LBHD			RBHD			C7			T10			CLAV			LSHO			LUUPA			LMUPA			LDUPA			LLEP			LMEP			LRAD			LUL			LRFIN			RSHO			RUPA1			RMUPA			RDUPA			RLEP			RMEP			RRAD			RUL			RUFIN			RASI			USACR			LSACR			RSACR			LTHI1			LTHI2			LTHI3			LTHI4			LLFC			LMFC			LTIB1			LTIB2			LTIB3			LTIB4			LLMAL			LMMAL			LHEE			LMT1			LMT2			LMT5			RTHI			RTHI2			RTHI3			RTHI4			RLFC			RMFC			RTIB1			RTIB2			RTIB3			RTIB4			RLMAL			RMMAL			RHEE			RMT1			RMT2			RMT5			LASI			*61			*62			*63			
		X1	Y1	Z1	X2	Y2	Z2	X3	Y3	Z3	X4	Y4	Z4	X5	Y5	Z5	X6	Y6	Z6	X7	Y7	Z7	X8	Y8	Z8	X9	Y9	Z9	X10	Y10	Z10	X11	Y11	Z11	X12	Y12	Z12	X13	Y13	Z13	X14	Y14	Z14	X15	Y15	Z15	X16	Y16	Z16	X17	Y17	Z17	X18	Y18	Z18	X19	Y19	Z19	X20	Y20	Z20	X21	Y21	Z21	X22	Y22	Z22	X23	Y23	Z23	X24	Y24	Z24	X25	Y25	Z25	X26	Y26	Z26	X27	Y27	Z27	X28	Y28	Z28	X29	Y29	Z29	X30	Y30	Z30	X31	Y31	Z31	X32	Y32	Z32	X33	Y33	Z33	X34	Y34	Z34	X35	Y35	Z35	X36	Y36	Z36	X37	Y37	Z37	X38	Y38	Z38	X39	Y39	Z39	X40	Y40	Z40	X41	Y41	Z41	X42	Y42	Z42	X43	Y43	Z43	X44	Y44	Z44	X45	Y45	Z45	X46	Y46	Z46	X47	Y47	Z47	X48	Y48	Z48	X49	Y49	Z49	X50	Y50	Z50	X51	Y51	Z51	X52	Y52	Z52	X53	Y53	Z53	X54	Y54	Z54	X55	Y55	Z55	X56	Y56	Z56	X57	Y57	Z57	X58	Y58	Z58	X59	Y59	Z59	X60	Y60	Z60	X61	Y61	Z61	X62	Y62	Z62	X63	Y63	Z63	X64	Y64	Z64	

665	3.32	24.56039047241212	1049.302978515625	-884.6663208007815	-101.8098983764649	1002.523193359375	-927.5518188476565	-159.0715789794922	968.0222778320315	-795.4661254882815	-173.700439453125	915.3460083007815	-853.7730102539065	-432.1666870117189	745.7617187500001	-854.5390625000002	-124.0780410766602	771.931823730469	-841.963562011719	-57.57649230957033	810.2484130859377	-993.7795410156252	-173.6497344970703	742.9564208984376	-1164.89453125	-204.7656860351563	707.1879272460939	-1153.599243164063	-223.8218231201172	722.1718139648439	-1208.801391601563	-277.4999694824219	712.4816894531251	-1250.746704101563	-311.5737304687501	777.5098876953127	-1236.355346679688	-525.8332519531251	648.7916259765626	-1097.046142578125	-508.1036376953126	583.2305297851564	-1127.610961914063	-492.0102844238282	632.9334106445314	-1042.439575195313	-101.102653503418	814.7640380859377	-682.1321411132814	-217.2737579345704	797.2554321289065	-510.4431152343751	-239.1789855957032	752.3468627929689	-507.9495544433595	-263.6587829589844	779.9358520507815	-460.5662841796876	-317.2939453125001	746.5669555664064	-423.2943420410157	-374.4540100097657	805.154235839844	-454.5054931640626	-482.8540039062501	629.1090698242189	-625.2376708984376	-470.8429565429689	563.2274169921876	-586.3195190429689	-433.837860107422	614.7348022460939	-676.9656982421876	nan	nan	nan	-572.8704223632814	654.7869262695314	-854.8131103515627	-596.2673950195314	635.1106567382814	-885.4238891601565	-604.3974609375001	633.3002319335939	-832.139831542969	-402.9987792968751	448.2786865234376	-1091.760620117188	-322.8623046875001	472.9724121093751	-1110.72802734375	-311.2401428222657	517.4291381835939	-1099.028198242188	-274.9504699707032	437.0344238281251	-1116.505493164063	-159.6515502929688	431.0151672363282	-1131.838012695313	-140.4347686767578	383.6938476562501	-1007.840698242188	-213.7084350585938	235.6411132812501	-1107.097290039063	-299.1054687500001	250.7207946777344	-1135.35791015625	-268.0991516113282	220.2877197265626	-1126.163208007813	-302.1141052246094	147.5120697021485	-1100.180419921875	-405.9947204589845	104.3407745361328	-1107.55908203125	-357.5924682617188	98.20803833007815	-1032.317626953125	-468.0945739746095	47.48075103759766	-1065.634643554688	-246.1120605468751	56.82737350463869	-1090.625854492188	-257.8115539550782	56.22584533691408	-1135.905639648438	-313.1021118164063	33.46263122558594	-1175.134399414063	-397.3800659179689	473.0413208007814	-623.0615844726564	-333.7951965332032	490.7437133789064	-610.6826782226564	-321.5934448242188	520.6429443359376	-620.5546264648439	-270.5624084472657	436.5493469238282	-594.8424682617189	-180.2745361328125	411.8857727050782	-577.7768554687501	-148.1490173339844	391.139862060547	-711.8323974609376	-220.5580139160157	247.8021240234376	-607.8923339843751	-330.1341857910157	235.2667083740235	-604.5432739257814	-294.6376342773438	204.5745544433594	-607.8317260742189	-305.8802185058594	156.3259735107422	-641.2198486328126	-416.2978515625001	101.2069702148438	-636.4998779296876	-376.1052246093751	98.49473571777347	-717.3241577148439	-476.5747985839845	49.73287963867189	-696.8278808593751	-259.1968078613282	54.4204788208008	-645.0437622070314	-272.1754150390626	58.24221801757814	-606.8522949218751	-326.0384216308594	35.91714096069337	-565.4650878906251	nan	nan	nan	nan	nan	nan	nan	nan	nan	nan	nan	nan	
666	3.325	24.82823944091798	1048.867919921875	-884.5585937500002	-101.566520690918	1002.275085449219	-927.5375976562502	-158.9706115722657	967.8289184570315	-795.3782958984377	-173.5419616699219	915.2845458984377	-853.7381591796877	-432.0328369140626	746.0087890625001	-854.6395263671877	-124.0722198486328	771.7729492187502	-841.9915161132815	-57.12133789062501	810.214294433594	-993.6279907226565	-173.4273529052735	743.5762939453126	-1164.814086914063	-205.4214935302735	708.2084960937501	-1153.458984375	-223.7297515869141	723.0369873046876	-1208.676513671875	-277.4847106933594	713.5955810546876	-1250.59130859375	-311.8677062988282	778.7405395507815	-1235.611694335938	-525.5593872070314	649.2000122070314	-1096.993408203125	-508.1168212890626	584.0952148437501	-1127.815551757813	-491.9286499023439	633.4691162109376	-1042.364501953125	-100.740951538086	814.3759765625002	-682.2719116210939	-217.1162109375001	797.1074829101565	-510.4399414062501	-239.0340423583985	752.1477050781251	-508.0203552246095	-263.5459899902344	779.693542480469	-460.5745239257814	-317.2117309570313	746.5405883789064	-423.2371215820314	-374.0131530761719	805.1189575195315	-454.5062866210939	-482.878631591797	629.3875732421876	-625.4323120117189	-470.9629516601564	563.4016113281251	-586.5263671875001	-433.998748779297	614.9848632812501	-677.1050415039064	nan	nan	nan	-572.8524169921876	655.0275878906251	-854.9478759765627	-596.1015625000001	635.3153076171876	-885.573425292969	-604.3607177734376	633.6667480468751	-832.2581787109377	-403.1446838378907	448.5505981445314	-1091.861694335938	-322.8965454101563	473.0759582519532	-1110.920166015625	-311.3670959472657	517.6112060546876	-1099.162231445313	-275.0881958007813	437.1563110351564	-1116.672119140625	-159.8943481445313	431.1385498046876	-1131.9970703125	-141.4474029541016	383.0914916992188	-1008.304016113281	-213.7064819335938	235.6604309082032	-1107.135375976563	-299.3357543945313	250.7265930175782	-1135.529541015625	-268.3620910644532	219.7806091308594	-1126.3193359375	-302.1920166015626	147.5303802490235	-1100.21044921875	-406.0562744140626	104.3289566040039	-1107.565673828125	-357.6824951171876	98.17553710937503	-1032.377319335938	-468.2401123046876	47.52872467041016	-1065.651000976563	-246.0428771972657	56.78840637207033	-1090.634643554688	-257.7960510253907	56.22304916381837	-1135.906860351563	-313.0708312988282	33.43922424316407	-1175.1513671875	-397.6715087890626	473.5110778808595	-623.0162963867189	-334.0706481933594	490.7387084960939	-610.5971069335939	-321.6814575195313	520.9017333984376	-620.4606323242189	-270.8178100585938	436.6760559082032	-594.8311157226564	-180.6796264648438	411.8894958496095	-577.5888061523439	-148.2727203369141	391.2459716796876	-711.7385253906251	-220.7739410400391	248.0408172607422	-607.6377563476564	-330.1730651855469	235.1753845214844	-604.4944458007814	-294.6808166503907	204.6624450683594	-607.7272949218751	-305.3215332031251	156.9305572509766	-640.5009155273439	-416.3250732421876	101.1403274536133	-636.4527587890626	-375.9082946777344	98.46569824218753	-717.4863281250001	-476.5830383300782	49.72919845581056	-696.8256835937501	-259.1874084472657	54.35610580444337	-645.0032348632814	-272.1336059570313	58.3156204223633	-606.8278198242189	-326.0414428710938	35.88031768798829	-565.4937744140626	nan	nan	nan	nan	nan	nan	nan	nan	nan	nan	nan	nan	
667	3.33	24.32619094848634	1048.9326171875	-884.5093994140627	-101.3173065185547	1002.074829101563	-927.451843261719	-158.8805389404297	967.721130371094	-795.3579101562502	-173.3567047119141	915.2091064453127	-853.7246093750002	-431.9013061523439	746.2416381835939	-854.7342529296877	-123.9774475097657	771.574645996094	-841.9175415039065	-56.67832946777345	810.095642089844	-993.4277954101565	-173.4853820800782	744.3489990234376	-1164.7001953125	-205.5870666503907	708.9330444335939	-1153.338012695313	-223.994125366211	724.2426147460939	-1208.615478515625	-277.5318908691407	714.8645019531251	-1250.539794921875	-311.5427246093751	779.9131469726565	-1235.420776367188	-525.3748779296876	650.0456542968751	-1096.836303710938	-508.1155090332032	584.5037841796876	-1128.641357421875	-492.0692443847657	634.0837402343751	-1042.410034179688	-100.6380386352539	814.1248779296877	-682.1681518554689	-216.9918212890626	796.9447021484377	-510.3225708007814	-238.6721191406251	752.0797119140626	-508.1820068359376	-263.3889160156251	779.2686767578127	-460.5936889648439	-317.1565246582032	746.4251098632814	-423.2059326171876	-373.7474975585938	805.074401855469	-454.4830932617189	-482.7579040527345	629.6375732421876	-625.5087280273439	-471.0659484863282	563.5292358398439	-586.8281250000001	-434.0462646484376	615.4249877929689	-677.2221069335939	nan	nan	nan	-572.8699951171876	655.4265747070314	-855.061218261719	-596.1433105468751	635.6749877929689	-885.7416992187502	-604.4647827148439	634.0282592773439	-832.5100708007815	-403.2471923828126	448.7622985839845	-1091.964721679688	-323.0021667480469	473.1562805175782	-1110.96826171875	-311.4947204589844	517.7848510742189	-1099.232177734375	-275.4769592285157	437.8102111816407	-1116.678466796875	-160.0628814697266	431.2033691406251	-1132.069580078125	-142.10498046875	383.0739440917969	-1008.493041992188	-213.7898864746094	235.6588897705079	-1107.14697265625	-299.1662597656251	250.6341857910157	-1135.513305664063	-268.2294616699219	220.2762145996094	-1126.173950195313	-302.1924438476563	147.4826049804688	-1100.242553710938	-406.1219177246095	104.3618850708008	-1107.634155273438	-357.6636962890626	98.1080017089844	-1032.363159179688	-468.1781616210939	47.49710845947266	-1065.619750976563	-246.0892639160157	56.88095855712892	-1090.676391601563	-257.8252258300782	56.24978256225587	-1135.862060546875	-313.0918579101563	33.4145622253418	-1175.154663085938	-397.7838745117189	473.748992919922	-623.0650634765626	-334.3655090332032	491.046112060547	-610.5861206054689	-321.7597656250001	521.1216430664064	-620.3158569335939	-271.0814208984376	436.6321716308595	-594.7236938476564	-181.0767974853516	412.1032104492189	-577.4337768554689	-148.3563690185547	391.4325561523439	-711.5513305664064	-220.8693389892579	248.0864715576172	-607.5355834960939	-330.4602966308594	235.2794342041016	-604.3777465820314	-294.8005371093751	204.7772216796876	-607.7457275390626	-306.0173339843751	156.4217681884766	-641.1834716796876	-416.317840576172	101.1234741210938	-636.4555664062501	-376.2131347656251	98.51623535156253	-717.2451782226564	-476.5898437500001	49.66969680786134	-696.8147583007814	-259.2064819335938	54.46521377563478	-645.0301513671876	-272.1755981445313	58.24397277832033	-606.8190307617189	-326.0549011230469	35.89936828613282	-565.4531250000001	nan	nan	nan	nan	nan	nan	nan	nan	nan	nan	nan	nan	
668	3.335	24.70289421081544	1048.83349609375	-884.3680419921877	-101.0444259643555	1001.878967285156	-927.4390258789065	-158.6584930419922	967.4841308593752	-795.3435058593752	-173.203598022461	915.162048339844	-853.6277465820315	-432.0873413085939	745.7663574218751	-854.961608886719	-123.8594207763672	771.4987792968752	-842.0537719726565	-55.8431854248047	810.187438964844	-993.410339355469	-173.2103271484375	744.9807739257814	-1164.830200195313	-205.6979980468751	709.8015747070314	-1153.318725585938	-224.0373840332032	725.1654052734376	-1208.623168945313	-277.5301818847657	716.0671997070314	-1250.64111328125	-311.3944091796876	780.9335937500002	-1234.983032226563	-525.5706176757814	651.1428833007814	-1096.776000976563	-508.5089111328126	585.6445922851564	-1128.1650390625	-490.4834594726564	634.2046508789064	-1041.912231445313	-100.4723281860352	813.9417724609377	-682.0914306640626	-216.6849822998047	796.715026855469	-510.4942321777345	-238.4462585449219	751.9125976562501	-508.2625732421876	-262.9554748535157	779.2851562500002	-460.7859802246095	-316.9934082031251	746.3673706054689	-423.049285888672	-373.6249389648438	805.1221313476565	-454.4302673339845	-482.1532592773439	629.8688354492189	-625.2385864257814	-471.248992919922	563.5541381835939	-587.1337890625001	-434.0949707031251	615.7098999023439	-677.3713989257814	nan	nan	nan	-572.7565307617189	655.7569580078126	-855.2003173828127	-596.0347900390626	636.0460205078126	-885.856140136719	-604.3906250000001	634.3713989257814	-832.5066528320315	-403.406951904297	448.9577026367189	-1092.046508789063	-323.1310729980469	473.3647766113282	-1111.09765625	-311.6306762695313	517.8677978515626	-1099.372802734375	-275.6697387695313	437.9204711914064	-1116.819580078125	-160.2021026611328	431.2792968750001	-1132.188110351563	-142.4777526855469	383.2152404785157	-1008.6455078125	-213.8415832519532	235.7356567382813	-1107.214965820313	-299.1958312988282	250.6622619628907	-1135.537231445313	-268.4850463867188	219.8234252929688	-1126.401489257813	-302.2548217773438	147.5007781982422	-1100.297485351563	-406.2744750976564	104.4360275268555	-1107.649169921875	-357.7159118652344	98.07997894287112	-1032.429565429688	-468.2204589843751	47.55064010620118	-1065.706665039063	-246.0758361816407	56.85424041748048	-1090.650024414063	-257.9464111328126	55.5410842895508	-1136.013916015625	-313.0135498046876	33.39756011962891	-1175.17822265625	-398.0698242187501	474.2348022460939	-622.9832763671876	-334.6879882812501	491.452362060547	-610.5190429687501	-321.9856872558594	521.4290161132814	-620.2487792968751	-271.4493713378907	436.8771972656251	-594.6609497070314	-181.2899932861328	412.2622070312501	-577.2573242187501	-148.624252319336	391.4967041015626	-711.2673950195314	-220.8967285156251	248.1790313720704	-607.4034423828126	-330.5987854003907	235.3609161376954	-604.2890625000001	-294.8747253417969	204.8162231445313	-607.5827636718751	-306.0310668945313	156.4591369628907	-641.1409301757814	-416.3219604492189	101.1027297973633	-636.3612060546876	-376.1929016113282	98.53596496582034	-717.2538452148439	-476.6306152343751	49.63935470581056	-696.7945556640626	-259.1831665039063	54.46281814575197	-644.9738769531251	-272.1978149414063	58.25867843627931	-606.7974853515626	-326.0965270996094	35.8138656616211	-565.4732666015626	nan	nan	nan	nan	nan	nan	nan	nan	nan	nan	nan	nan	
